<?xml version="1.0" encoding="UTF-8" standalone="no"?>
<svg
   xmlns:dc="http://purl.org/dc/elements/1.1/"
   xmlns:cc="http://creativecommons.org/ns#"
   xmlns:rdf="http://www.w3.org/1999/02/22-rdf-syntax-ns#"
   xmlns:svg="http://www.w3.org/2000/svg"
   xmlns="http://www.w3.org/2000/svg"
   id="svg8"
   version="1.1"
   viewBox="0 0 210 297"
   height="297mm"
   width="210mm">
  <defs
     id="defs2" />
  <metadata
     id="metadata5">
    <rdf:RDF>
      <cc:Work
         rdf:about="">
        <dc:format>image/svg+xml</dc:format>
        <dc:type
           rdf:resource="http://purl.org/dc/dcmitype/StillImage" />
        <dc:title></dc:title>
      </cc:Work>
    </rdf:RDF>
  </metadata>
  <g
     id="layer1">
    <path
       id="path16"
       d="M 75.273344,70.984916 15.05868,135.68923 70.503866,196.41175"
       style="fill:none;fill-opacity:1;stroke:#000000;stroke-width:10.19074535;stroke-linecap:round;stroke-linejoin:round;stroke-miterlimit:4;stroke-dasharray:none;stroke-opacity:1;paint-order:stroke fill markers" />
    <path
       style="fill:none;fill-opacity:1;stroke:#000000;stroke-width:10.19074535;stroke-linecap:round;stroke-linejoin:round;stroke-miterlimit:4;stroke-dasharray:none;stroke-opacity:1;paint-order:stroke fill markers"
       d="M 138.5372,197.48083 198.75187,132.77652 143.30668,72.053995"
       id="path839" />
    <path
       id="path981"
       d="m 93.009796,197.04119 c 0,0 0.119963,0.0558 0.119963,0.0558 9.194071,-19.77795 36.656321,-79.16755 45.850391,-98.94549 -9.19407,19.77794 -36.89625,79.05601 -46.090317,98.83395 0,0 0.119963,0.0558 0.119963,0.0558 z"
       style="fill:#000000;fill-rule:nonzero;stroke:#000000;stroke-width:10;stroke-linecap:round;stroke-linejoin:round;stroke-opacity:1;stroke-miterlimit:4;stroke-dasharray:none" />
    <path
       id="path981-6"
       d="m 93.009796,197.04119 c 0,0 0.119963,0.0558 0.119963,0.0558 9.194071,-19.77795 36.656321,-79.16755 45.850391,-98.94549 -9.19407,19.77794 -36.89625,79.05601 -46.090317,98.83395 0,0 0.119963,0.0558 0.119963,0.0558 z"
       style="fill:#000000;fill-rule:nonzero;stroke:#000000;stroke-width:10;stroke-linecap:round;stroke-linejoin:round;stroke-miterlimit:4;stroke-dasharray:none;stroke-opacity:1"
       transform="translate(-12.754382,-38.81369)" />
  </g>
</svg>
