<?xml version="1.0" standalone="no"?>
<!DOCTYPE svg PUBLIC "-//W3C//DTD SVG 20010904//EN"
 "http://www.w3.org/TR/2001/REC-SVG-20010904/DTD/svg10.dtd">
<svg version="1.0" xmlns="http://www.w3.org/2000/svg"
 width="70.000000pt" height="70.000000pt" viewBox="0 0 70.000000 70.000000"
 preserveAspectRatio="xMidYMid meet">
<metadata>
Created by potrace 1.11, written by Peter Selinger 2001-2013
</metadata>
<g transform="translate(0.000000,70.000000) scale(0.100000,-0.100000)"
fill="#000000" stroke="none">
<path d="M255 664 c-151 -53 -235 -172 -230 -326 3 -90 33 -159 98 -223 66
-65 126 -89 227 -89 72 -1 94 3 140 25 70 33 126 89 159 159 22 46 26 69 26
140 0 74 -4 93 -29 143 -32 64 -94 125 -162 157 -55 27 -172 34 -229 14z"/>
</g>
</svg>
